<?xml version="1.0" encoding="utf-8"?><svg xml:space="preserve" viewBox="0 0 100 100" y="0" x="0" xmlns="http://www.w3.org/2000/svg" id="圖層_1" version="1.1" width="182px" height="182px" xmlns:xlink="http://www.w3.org/1999/xlink" style="width:100%;height:100%;background-size:initial;background-repeat-y:initial;background-repeat-x:initial;background-position-y:initial;background-position-x:initial;background-origin:initial;background-color:initial;background-clip:initial;background-attachment:initial;animation-play-state:paused" ><g class="ldl-scale" style="transform-origin:50% 50%;transform:rotate(0deg) scale(1, 1);animation-play-state:paused" ><path fill="#f5e6c8" d="M50 85.8c17.1 0 31.1-13.9 31.1-31.1S67.1 23.6 50 23.6 18.9 37.5 18.9 54.7s14 31.1 31.1 31.1z" style="fill:rgb(0, 255, 245);animation-play-state:paused" ></path>
<path fill="#c33737" d="M64.2 30.2c-.9-.5-2.1-.2-2.7.6L47.1 51.5c-.3.5-.4 1.1-.3 1.6.1.6.5 1 1 1.3l3.5 2c.3.2.7.3 1 .3.8 0 1.5-.5 1.9-1.2L65 32.8c.5-.9.1-2.1-.8-2.6z" style="fill:rgb(170, 251, 251);animation-play-state:paused" ></path>
<path fill="#666" d="M57.1 16.9H42.9c-.3 0-.5-.2-.5-.5v-3.8c0-2.8 2.3-5.1 5.1-5.1h5c2.8 0 5.1 2.3 5.1 5.1v3.8c0 .3-.2.5-.5.5z" style="fill:rgb(76, 212, 204);animation-play-state:paused" ></path>
<path fill="#333" d="M50 92.5c20.9 0 37.8-16.9 37.8-37.8S70.9 16.9 50 16.9 12.2 33.8 12.2 54.7 29.1 92.5 50 92.5zm0-68.9c17.1 0 31.1 13.9 31.1 31.1S67.1 85.8 50 85.8 18.9 71.9 18.9 54.7s14-31.1 31.1-31.1z" style="fill:rgb(4, 155, 186);animation-play-state:paused" ></path>
<metadata xmlns:d="https://loading.io/stock/" style="animation-play-state:paused" ><d:name style="animation-play-state:paused" >stopwatch</d:name>
<d:tags style="animation-play-state:paused" >time,meter,timer,speed,run,elapse,temporal,stopwatch,web application</d:tags>
<d:license style="animation-play-state:paused" >pro</d:license>
<d:slug style="animation-play-state:paused" >itkh6f</d:slug></metadata></g><!-- generated by https://loading.io/ --></svg>