<svg id="ebjpxrz2zus1" xmlns="http://www.w3.org/2000/svg" xmlns:xlink="http://www.w3.org/1999/xlink" viewBox="0 0 100 100" shape-rendering="geometricPrecision" text-rendering="geometricPrecision"><style><![CDATA[#ebjpxrz2zus3_tr {animation: ebjpxrz2zus3_tr__tr 3000ms linear infinite reverse forwards}@keyframes ebjpxrz2zus3_tr__tr { 0% {transform: translate(50.000003px,54.699999px) rotate(1419deg);animation-timing-function: cubic-bezier(0.420000,0,0.580000,1)} 100% {transform: translate(50.000003px,54.699999px) rotate(339deg)} }]]></style><g id="ebjpxrz2zus2"><g id="ebjpxrz2zus3_tr" transform="translate(50.000003,54.699999) rotate(339)"><g id="ebjpxrz2zus3" transform="translate(-50.000003,-54.699999)"><path id="ebjpxrz2zus4" d="M50,85.800000C67.100000,85.800000,81.100000,71.900000,81.100000,54.700000C81.100000,37.500000,67.100000,23.600000,50,23.600000C32.900000,23.600000,18.900000,37.500000,18.900000,54.700000C18.900000,71.900000,32.900000,85.800000,50,85.800000Z" fill="rgb(0,255,245)" stroke="none" stroke-width="1"/><path id="ebjpxrz2zus5" d="M64.200000,30.200000C63.300000,29.700000,62.100000,30,61.500000,30.800000L47.100000,51.500000C46.800000,52,46.700000,52.600000,46.800000,53.100000C46.900000,53.700000,47.300000,54.100000,47.800000,54.400000L51.300000,56.400000C51.600000,56.600000,52,56.700000,52.300000,56.700000C53.100000,56.700000,53.800000,56.200000,54.200000,55.500000L65,32.800000C65.500000,31.900000,65.100000,30.700000,64.200000,30.200000Z" fill="rgb(170,251,251)" stroke="none" stroke-width="1"/><path id="ebjpxrz2zus6" d="M50,92.500000C70.900000,92.500000,87.800000,75.600000,87.800000,54.700000C87.800000,33.800000,70.900000,16.900000,50,16.900000C29.100000,16.900000,12.200000,33.800000,12.200000,54.700000C12.200000,75.600000,29.100000,92.500000,50,92.500000ZM50,23.600000C67.100000,23.600000,81.100000,37.500000,81.100000,54.700000C81.100000,71.900000,67.100000,85.800000,50,85.800000C32.900000,85.800000,18.900000,71.900000,18.900000,54.700000C18.900000,37.500000,32.900000,23.600000,50,23.600000Z" fill="rgb(4,155,186)" stroke="none" stroke-width="1"/></g></g><path id="ebjpxrz2zus7" d="M57.100000,16.900000L42.900000,16.900000C42.600000,16.900000,42.400000,16.700000,42.400000,16.400000L42.400000,12.600000C42.400000,9.800000,44.700000,7.500000,47.500000,7.500000L52.500000,7.500000C55.300000,7.500000,57.600000,9.800000,57.600000,12.600000L57.600000,16.400000C57.600000,16.700000,57.400000,16.900000,57.100000,16.900000Z" fill="rgb(76,212,204)" stroke="none" stroke-width="1"/></g></svg>